solid stl_item0
  facet normal 1 0 0
    outer loop
      vertex 69 -70 5
      vertex 69 -70 0
      vertex 69 70 0
    endloop
  endfacet
  facet normal 1 0 0
    outer loop
      vertex 69 -70 5
      vertex 69 70 0
      vertex 69 70 5
    endloop
  endfacet
  facet normal -1 0 0
    outer loop
      vertex -71 70 5
      vertex -71 70 0
      vertex -71 -70 0
    endloop
  endfacet
  facet normal -1 0 0
    outer loop
      vertex -71 70 5
      vertex -71 -70 0
      vertex -71 -70 5
    endloop
  endfacet
  facet normal 0 0 1
    outer loop
      vertex 69 70 5
      vertex -71 70 5
      vertex -71 -70 5
    endloop
  endfacet
  facet normal 0 0 1
    outer loop
      vertex 69 70 5
      vertex -71 -70 5
      vertex 69 -70 5
    endloop
  endfacet
  facet normal 0 0 -1
    outer loop
      vertex 69 -70 0
      vertex -71 -70 0
      vertex -71 70 0
    endloop
  endfacet
  facet normal 0 0 -1
    outer loop
      vertex 69 -70 0
      vertex -71 70 0
      vertex 69 70 0
    endloop
  endfacet
  facet normal 0 1 0
    outer loop
      vertex 69 70 5
      vertex 69 70 0
      vertex -71 70 0
    endloop
  endfacet
  facet normal 0 1 0
    outer loop
      vertex 69 70 5
      vertex -71 70 0
      vertex -71 70 5
    endloop
  endfacet
  facet normal 0 -1 0
    outer loop
      vertex -71 -70 5
      vertex -71 -70 0
      vertex 69 -70 0
    endloop
  endfacet
  facet normal 0 -1 0
    outer loop
      vertex -71 -70 5
      vertex 69 -70 0
      vertex 69 -70 5
    endloop
  endfacet
endsolid stl_item0
